{"glyphs":{"B":{"ha":850,"x_min":0,"x_max":0,"o":"m 24 10 b 96 350 92 29 96 50 l 96 692 b 24 1032 96 992 92 1013 l 24 1042 l 376 1042 b 760 804 636 1042 760 950 b 450 569 760 697 694 596 l 450 568 b 817 300 718 539 817 428 b 360 0 817 94 632 0 l 24 0 m 276 1029 l 276 574 l 367 574 b 603 797 553 574 603 638 b 375 1029 603 946 544 1029 m 276 563 l 276 13 l 353 13 b 638 281 557 13 638 76 b 369 563 638 458 597 563 "},"C":{"ha":899,"x_min":0,"x_max":0,"o":"m 533 -17 b 47 522 271 -17 47 190 b 531 1056 47 886 304 1056 b 783 999 674 1056 724 999 b 831 1038 807 999 824 1011 l 843 1038 l 843 797 l 831 797 b 531 1043 786 968 667 1043 b 243 543 369 1043 243 894 b 575 14 243 153 382 14 b 854 144 707 14 803 83 l 863 136 b 533 -17 819 75 711 -17 "},"D":{"ha":988,"x_min":0,"x_max":0,"o":"m 24 10 b 96 350 92 29 96 50 l 96 692 b 24 1032 96 992 92 1013 l 24 1042 l 335 1042 b 940 535 701 1042 940 874 b 335 0 940 208 728 0 l 24 0 m 276 1029 l 276 11 l 335 11 b 744 536 618 11 744 151 b 335 1029 744 932 578 1029 "},"E":{"ha":811,"x_min":0,"x_max":0,"o":"m 24 10 b 96 350 92 29 96 50 l 96 692 b 24 1032 96 992 92 1013 l 24 1042 l 701 1042 b 726 1013 717 1042 721 1040 l 751 874 l 738 874 b 451 1029 696 997 644 1029 l 276 1029 l 276 582 l 353 582 b 514 696 494 582 496 633 l 525 696 l 525 456 l 514 456 b 353 569 496 518 494 569 l 276 569 l 276 13 l 469 13 b 769 186 676 13 732 42 l 782 186 l 765 25 b 739 0 761 -1 754 0 l 24 0 "},"F":{"ha":797,"x_min":0,"x_max":0,"o":"m 24 10 b 96 350 92 29 96 49 l 96 692 b 24 1032 96 993 92 1013 l 24 1042 l 733 1042 b 757 1013 749 1042 753 1042 l 779 865 l 765 865 b 479 1029 725 990 690 1029 l 276 1029 l 276 589 l 379 589 b 538 704 519 589 522 642 l 549 704 l 549 463 l 538 463 b 379 576 522 522 519 576 l 276 576 l 276 350 b 349 10 276 49 281 29 l 349 0 l 24 0 "},"G":{"ha":1010,"x_min":0,"x_max":0,"o":"m 536 -17 b 47 529 253 -17 47 210 b 542 1056 47 890 321 1056 b 810 1003 692 1056 736 1003 b 851 1039 831 1003 846 1015 l 865 1039 l 865 799 l 851 799 b 542 1043 814 956 701 1043 b 242 543 371 1043 242 921 b 536 -4 242 151 351 -4 b 743 261 693 -4 743 76 l 743 271 b 663 464 743 422 725 446 l 663 474 l 993 474 l 993 464 b 914 200 921 444 914 424 l 914 158 b 536 -17 847 74 692 -17 "},"H":{"ha":988,"x_min":0,"x_max":0,"o":"m 24 10 b 96 350 92 29 96 49 l 96 692 b 24 1032 96 993 92 1013 l 24 1042 l 344 1042 l 344 1032 b 272 692 276 1013 272 993 l 272 576 l 715 576 l 715 692 b 643 1032 715 993 711 1013 l 643 1042 l 965 1042 l 965 1032 b 893 692 897 1013 893 993 l 893 350 b 965 10 893 49 897 29 l 965 0 l 643 0 l 643 10 b 715 350 711 29 715 49 l 715 565 l 272 565 l 272 350 b 344 10 272 49 276 29 l 344 0 l 24 0 "},"I":{"ha":368,"x_min":0,"x_max":0,"o":"m 24 10 b 96 350 92 29 96 50 l 96 692 b 24 1032 96 993 92 1013 l 24 1042 l 344 1042 l 344 1032 b 272 692 276 1013 272 993 l 272 350 b 344 10 272 50 276 29 l 344 0 l 24 0 "},"J":{"ha":600,"x_min":0,"x_max":0,"o":"m 247 -14 b 8 124 114 -14 8 39 b 78 193 8 169 43 193 b 160 111 118 193 144 174 b 250 -1 175 32 182 -1 b 332 90 296 -1 332 25 l 332 692 b 260 1032 332 996 328 1013 l 260 1042 l 582 1042 l 582 1032 b 510 692 514 1013 510 996 l 510 235 b 247 -14 510 76 383 -14 "},"K":{"ha":893,"x_min":0,"x_max":0,"o":"m 24 10 b 96 350 92 29 96 49 l 96 692 b 24 1032 96 993 92 1013 l 24 1042 l 344 1042 l 344 1032 b 272 692 276 1013 272 993 l 272 565 l 656 908 b 674 1033 744 986 736 1011 l 674 1042 l 844 1042 l 844 1033 b 701 932 817 1026 772 997 l 408 669 l 800 110 b 903 8 849 42 865 24 l 903 0 l 592 0 l 592 8 b 586 115 643 19 632 47 l 272 565 l 272 350 b 344 10 272 49 276 29 l 344 0 l 24 0 "},"L":{"ha":775,"x_min":0,"x_max":0,"o":"m 24 10 b 96 350 92 29 96 49 l 96 692 b 24 1032 96 993 92 1013 l 24 1042 l 351 1042 l 351 1032 b 276 692 281 1014 276 993 l 276 13 l 444 13 b 743 211 642 13 692 49 l 758 211 l 724 25 b 699 0 718 -1 714 0 l 24 0 "},"M":{"ha":1140,"x_min":0,"x_max":0,"o":"m 24 10 b 96 356 92 43 96 64 l 96 692 b 24 1032 96 992 92 1013 l 24 1042 l 274 1042 b 303 1008 289 1042 290 1040 l 578 254 l 857 1042 l 1117 1042 l 1117 1032 b 1044 692 1049 1013 1044 993 l 1044 350 b 1117 10 1044 49 1049 29 l 1117 0 l 789 0 l 789 10 b 861 350 857 29 861 49 l 861 1007 l 501 -4 l 486 -4 l 110 1011 l 110 356 b 192 10 110 64 114 43 l 192 0 l 24 0 "},"N":{"ha":890,"x_min":0,"x_max":0,"o":"m 24 10 b 96 356 92 43 96 63 l 96 692 b 24 1032 96 992 92 1013 l 24 1042 l 272 1042 b 326 1000 299 1042 300 1039 l 792 281 l 792 686 b 710 1032 792 979 788 999 l 710 1042 l 878 1042 l 878 1032 b 806 686 810 999 806 979 l 806 -4 l 768 -4 l 110 1013 l 110 356 b 192 10 110 63 114 43 l 192 0 l 24 0 "},"O":{"ha":1040,"x_min":0,"x_max":0,"o":"m 519 -18 b 47 522 274 -18 47 207 b 519 1056 47 838 274 1056 b 993 522 767 1056 993 838 b 519 -18 993 207 767 -18 m 519 -6 b 797 522 679 -6 797 154 b 519 1044 797 889 665 1044 b 243 522 375 1044 243 889 b 519 -6 243 154 360 -6 "},"P":{"ha":814,"x_min":0,"x_max":0,"o":"m 24 10 b 96 350 92 29 96 49 l 96 692 b 24 1032 96 993 92 1013 l 24 1042 l 408 1042 b 797 778 636 1042 797 972 b 410 481 797 575 626 481 l 276 481 l 276 350 b 353 10 276 49 279 28 l 353 0 l 24 0 m 276 1029 l 276 493 l 406 493 b 629 763 538 493 629 557 b 407 1029 629 969 535 1029 "},"Q":{"ha":1040,"x_min":0,"x_max":0,"o":"m 519 -17 b 47 522 267 -17 47 200 b 519 1056 47 846 267 1056 b 993 522 774 1056 993 846 b 744 44 993 300 890 131 l 761 -3 b 931 -207 794 -114 846 -207 b 1022 -162 975 -207 1001 -183 l 1029 -169 b 878 -231 1006 -196 978 -231 b 597 -10 763 -231 646 -194 b 519 -17 571 -14 546 -17 m 519 1044 b 243 522 365 1044 243 889 b 419 8 243 201 299 51 b 350 131 374 35 350 76 b 492 254 350 201 404 254 b 724 92 586 254 667 203 b 797 522 772 169 797 299 b 519 1044 797 889 675 1044 m 367 131 b 519 -4 367 36 429 -4 b 594 3 546 -4 571 -3 b 589 29 593 10 590 18 b 457 229 560 183 526 229 b 367 131 408 229 367 193 "},"R":{"ha":892,"x_min":0,"x_max":0,"o":"m 24 10 b 96 350 92 29 96 49 l 96 692 b 24 1032 96 993 92 1013 l 24 1042 l 385 1042 b 828 796 696 1042 828 951 b 425 522 828 606 646 522 l 413 522 b 678 265 547 504 633 440 b 826 24 717 103 754 24 b 897 54 864 24 879 33 l 906 46 b 771 -10 885 24 844 -10 b 494 256 626 -10 535 50 b 317 522 450 499 422 522 l 276 522 l 276 350 b 349 10 276 49 281 29 l 349 0 l 24 0 m 276 1029 l 276 533 l 414 533 b 654 772 588 533 654 610 b 379 1029 654 935 593 1029 "},"S":{"ha":758,"x_min":0,"x_max":0,"o":"m 365 -12 b 81 61 197 -12 164 61 b 44 31 61 61 49 51 l 32 31 l 32 296 l 46 296 b 364 0 67 114 174 0 b 592 196 526 0 592 68 b 310 476 592 335 510 383 b 51 789 154 547 51 629 b 351 1056 51 935 167 1056 b 599 1000 497 1056 540 1000 b 638 1035 619 1000 632 1011 l 650 1035 l 650 825 l 636 825 b 351 1043 610 969 506 1043 b 160 886 219 1043 160 986 b 383 660 160 786 229 728 b 717 310 569 574 717 496 b 365 -12 717 97 544 -12 "},"T":{"ha":881,"x_min":0,"x_max":0,"o":"m 276 10 b 349 350 344 29 349 50 l 349 1029 l 282 1029 b 24 825 119 1029 57 997 l 10 825 l 29 1013 b 53 1042 33 1042 38 1042 l 825 1042 b 849 1013 840 1042 844 1042 l 871 825 l 857 825 b 600 1029 821 994 758 1029 l 529 1029 l 529 350 b 601 10 529 50 533 29 l 601 0 l 276 0 "},"U":{"ha":925,"x_min":0,"x_max":0,"o":"m 494 -15 b 89 354 244 -15 89 106 l 89 692 b 19 1032 89 993 86 1014 l 19 1042 l 339 1042 l 339 1032 b 267 692 271 1013 267 993 l 267 324 b 500 -3 267 113 285 -3 b 818 349 696 -3 818 93 l 818 686 b 738 1032 818 978 814 999 l 738 1042 l 906 1042 l 906 1032 b 833 686 838 999 833 979 l 833 349 b 494 -15 833 88 704 -15 "},"V":{"ha":901,"x_min":0,"x_max":0,"o":"m 115 851 b 10 1033 71 967 61 1007 l 10 1042 l 303 1042 l 303 1033 b 286 910 263 1022 254 994 l 538 218 l 772 867 b 735 1033 801 953 814 1011 l 735 1042 l 892 1042 l 892 1033 b 786 865 851 1015 835 999 l 469 -7 l 438 -7 "},"W":{"ha":1263,"x_min":0,"x_max":0,"o":"m 110 865 b 11 1032 72 965 64 1006 l 11 1042 l 289 1042 l 289 1032 b 275 919 250 1021 247 996 l 524 217 l 633 522 l 510 865 b 410 1032 474 964 463 1010 l 410 1042 l 686 1042 l 686 1032 b 674 918 647 1021 647 996 l 744 711 l 801 867 b 782 1032 828 946 847 1006 l 782 1042 l 919 1042 l 919 1032 b 817 867 879 1014 865 1001 l 751 690 l 915 211 l 1133 865 b 1096 1032 1160 944 1174 1006 l 1096 1042 l 1251 1042 l 1251 1032 b 1149 865 1210 1013 1193 1000 l 858 -7 l 825 -7 l 642 500 l 458 -7 l 425 -7 "},"X":{"ha":915,"x_min":0,"x_max":0,"o":"m 18 8 b 168 169 76 38 97 67 l 383 488 l 156 879 b 17 1033 89 990 65 1018 l 17 1042 l 339 1042 l 339 1033 b 349 886 288 1022 289 988 l 510 606 l 694 879 b 692 1033 757 969 757 1018 l 692 1042 l 857 1042 l 857 1033 b 707 872 794 1004 782 985 l 518 593 l 757 178 b 900 8 817 74 847 33 l 900 0 l 574 0 l 574 8 b 568 171 629 26 635 60 l 392 474 l 181 163 b 193 8 121 74 132 26 l 193 0 l 18 0 "},"Y":{"ha":871,"x_min":0,"x_max":0,"o":"m 281 10 b 353 350 349 29 353 50 l 353 513 l 147 867 b 8 1033 94 957 68 1003 l 8 1042 l 321 1042 l 321 1033 b 304 929 282 1018 271 989 l 524 546 l 703 867 b 710 1033 754 963 778 1011 l 710 1042 l 863 1042 l 863 1033 b 718 867 821 1015 789 997 l 531 531 l 531 350 b 603 10 531 50 535 29 l 603 0 l 281 0 "},"Z":{"ha":843,"x_min":0,"x_max":0,"o":"m 578 1029 l 347 1029 b 60 851 157 1029 100 965 l 47 851 l 83 1042 l 786 1042 l 225 13 l 494 13 b 811 232 714 13 767 64 l 825 232 l 792 0 l 24 0 "},"a":{"ha":618,"x_min":0,"x_max":0,"o":"m 194 -11 b 26 133 94 -11 26 40 b 275 322 26 260 147 267 l 299 332 b 385 440 357 357 385 371 l 385 547 b 281 646 385 624 331 646 b 189 581 225 646 210 624 b 115 514 172 543 158 514 b 57 565 78 514 57 538 b 278 658 57 625 157 658 b 542 483 407 658 542 622 l 542 179 b 588 18 542 40 550 18 b 624 31 603 18 614 25 l 626 24 b 515 -8 614 14 586 -8 b 388 79 442 -8 399 21 l 379 71 b 194 -11 331 25 283 -11 m 186 161 b 271 24 186 72 215 24 b 379 85 304 24 340 47 l 386 92 b 385 113 385 97 385 106 l 385 381 b 301 321 374 354 347 342 l 278 310 b 186 161 213 283 186 239 "},"b":{"ha":736,"x_min":0,"x_max":0,"o":"m 372 -11 b 125 56 250 -11 179 56 b 88 22 96 56 92 33 l 76 22 l 76 785 b 19 953 76 944 76 946 l 19 964 l 233 1078 l 233 528 l 253 550 b 451 658 299 599 354 658 b 703 340 568 658 703 560 b 372 -11 703 118 550 -11 m 271 28 b 371 1 293 13 315 1 b 538 317 472 1 538 89 b 406 629 538 575 475 629 b 253 533 343 629 299 585 l 233 511 l 233 146 b 271 28 233 75 244 46 "},"c":{"ha":590,"x_min":0,"x_max":0,"o":"m 353 -10 b 32 314 179 -10 32 118 b 357 660 32 536 218 660 b 568 557 472 660 568 621 b 511 506 568 525 544 506 b 426 599 456 506 444 538 b 358 647 415 636 396 647 b 196 351 268 647 196 568 b 393 17 196 124 275 17 b 565 94 472 17 525 46 l 574 88 b 353 -10 531 33 458 -10 "},"d":{"ha":746,"x_min":0,"x_max":0,"o":"m 299 -10 b 40 303 171 -10 40 92 b 361 657 40 531 192 657 b 510 604 422 657 472 633 l 510 783 b 453 951 510 943 510 947 l 453 963 l 667 1078 l 667 213 b 728 10 667 46 668 25 l 728 0 l 510 0 l 510 110 l 497 96 b 299 -10 443 36 386 -10 m 206 321 b 342 18 206 88 269 18 b 497 113 396 18 443 51 l 510 126 l 510 588 b 364 644 467 621 424 644 b 206 321 269 644 206 547 "},"e":{"ha":631,"x_min":0,"x_max":0,"o":"m 368 -11 b 32 329 201 -11 32 90 b 338 660 32 558 215 660 b 601 451 510 660 590 546 l 200 451 b 193 338 196 418 193 381 b 404 15 193 146 264 15 b 579 75 483 15 531 40 l 586 65 b 368 -11 538 26 475 -11 m 338 647 b 201 464 275 647 222 599 l 458 464 b 338 647 447 575 419 647 "},"f":{"ha":378,"x_min":0,"x_max":0,"o":"m 31 10 b 86 213 85 24 86 46 l 86 633 l 21 633 l 21 644 b 88 729 81 654 88 672 l 88 810 b 315 1058 88 997 226 1058 b 468 969 400 1058 468 1031 b 414 921 468 947 453 921 b 347 978 369 921 354 938 b 308 1046 338 1033 332 1046 b 244 872 268 1046 244 1011 l 244 647 l 368 647 l 368 633 l 244 633 l 244 213 b 325 10 244 46 246 25 l 325 0 l 31 0 "},"g":{"ha":615,"x_min":0,"x_max":0,"o":"m 294 224 b 163 254 250 224 203 233 l 144 240 b 104 189 115 219 104 207 b 169 153 104 174 121 158 l 394 125 b 597 -35 539 107 597 50 b 292 -239 597 -157 475 -239 b 15 -103 158 -239 15 -206 b 147 13 15 -44 85 -10 b 53 122 81 33 53 74 b 132 246 53 178 92 214 l 151 260 b 40 436 86 294 39 353 b 294 660 40 576 176 660 b 428 626 339 660 385 649 b 557 688 476 665 525 688 b 617 638 600 688 617 669 b 575 590 617 606 596 590 b 476 632 535 590 510 632 b 438 621 464 632 450 628 b 551 436 503 583 551 519 b 294 224 551 297 413 224 m 294 236 b 408 436 350 236 408 285 b 294 647 408 588 356 647 b 183 436 235 647 183 588 b 294 236 183 285 238 236 m 106 -93 b 292 -226 106 -183 174 -226 b 539 -106 458 -226 539 -161 b 367 -18 539 -44 476 -31 l 206 0 b 161 8 190 1 175 4 b 106 -93 118 -12 106 -49 "},"h":{"ha":713,"x_min":0,"x_max":0,"o":"m 21 10 b 76 213 75 24 76 46 l 76 783 b 19 951 76 943 76 947 l 19 963 l 233 1078 l 233 513 l 264 542 b 479 658 336 613 394 658 b 640 483 560 658 640 619 l 640 213 b 696 10 640 46 640 25 l 696 0 l 421 0 l 421 10 b 482 213 479 24 482 46 l 482 528 b 415 621 482 599 450 621 b 264 525 376 621 329 590 l 233 496 l 233 213 b 294 10 233 46 235 25 l 294 0 l 21 0 "},"i":{"ha":315,"x_min":0,"x_max":0,"o":"m 156 739 b 68 828 107 739 68 779 b 156 914 68 876 107 914 b 244 828 206 914 244 876 b 156 739 244 779 206 739 m 19 10 b 78 213 75 25 78 46 l 78 365 b 21 538 78 528 78 531 l 21 549 l 235 667 l 235 213 b 296 10 235 46 236 25 l 296 0 l 19 0 "},"j":{"ha":314,"x_min":0,"x_max":0,"o":"m 156 739 b 68 828 107 739 68 779 b 156 914 68 876 107 914 b 244 828 206 914 244 876 b 156 739 244 779 206 739 m -40 -193 b -103 -136 -72 -193 -103 -174 b -53 -86 -103 -103 -81 -86 b 46 -153 -7 -86 18 -153 b 58 -147 51 -153 54 -151 b 78 -10 74 -136 78 -103 l 78 364 b 21 538 78 528 78 531 l 21 549 l 235 667 l 235 128 b 94 -140 235 17 200 -64 b -40 -193 35 -183 3 -193 "},"k":{"ha":671,"x_min":0,"x_max":0,"o":"m 21 10 b 76 213 75 24 76 46 l 76 783 b 19 951 76 943 76 947 l 19 963 l 233 1078 l 233 213 b 294 10 233 46 235 25 l 294 0 l 21 0 m 413 10 b 422 82 450 14 457 33 l 239 342 l 240 350 l 479 551 b 474 639 540 606 522 633 l 474 647 l 642 647 l 642 639 b 488 542 597 628 568 608 l 356 432 l 608 78 b 679 10 646 28 661 14 l 679 0 l 413 0 "},"l":{"ha":318,"x_min":0,"x_max":0,"o":"m 21 10 b 78 213 76 25 78 46 l 78 783 b 19 951 78 943 79 947 l 19 963 l 236 1078 l 236 213 b 300 10 236 46 239 24 l 300 0 l 21 0 "},"m":{"ha":1071,"x_min":0,"x_max":0,"o":"m 19 10 b 75 213 74 24 75 46 l 75 365 b 18 538 75 528 75 531 l 18 549 l 233 667 l 233 529 l 246 542 b 461 658 318 613 376 658 b 611 525 533 658 596 626 l 628 542 b 843 658 700 613 758 658 b 997 483 921 658 997 619 l 997 213 b 1053 10 997 46 997 25 l 1053 0 l 778 0 l 778 10 b 839 213 835 25 839 46 l 839 528 b 778 621 839 599 813 621 b 628 525 739 621 694 592 l 613 510 l 613 508 l 615 507 l 615 213 b 671 10 615 46 615 25 l 671 0 l 396 0 l 396 10 b 457 213 453 25 457 46 l 457 528 b 396 621 457 599 431 621 b 246 525 357 621 313 592 l 233 513 l 233 213 b 294 10 233 46 235 25 l 294 0 l 19 0 "},"n":{"ha":718,"x_min":0,"x_max":0,"o":"m 21 10 b 76 213 75 24 76 46 l 76 365 b 19 538 76 528 76 531 l 19 549 l 233 667 l 233 508 l 268 542 b 485 658 340 613 400 658 b 646 483 564 658 646 619 l 646 213 b 701 10 646 46 646 25 l 701 0 l 425 0 l 425 10 b 488 213 481 25 488 46 l 488 528 b 419 621 488 599 457 621 b 268 525 382 621 335 590 l 233 492 l 233 213 b 294 10 233 46 235 25 l 294 0 l 21 0 "},"o":{"ha":704,"x_min":0,"x_max":0,"o":"m 353 -11 b 32 321 231 -11 32 76 b 353 661 32 561 231 661 b 672 321 475 661 672 561 b 353 -11 672 76 475 -11 m 353 1 b 508 321 438 1 508 74 b 353 649 508 567 438 649 b 196 321 268 649 196 567 b 353 1 196 74 268 1 "},"p":{"ha":736,"x_min":0,"x_max":0,"o":"m 21 -221 b 76 -18 75 -207 76 -185 l 76 365 b 19 538 76 528 76 531 l 19 549 l 233 667 l 233 532 l 249 550 b 443 658 293 601 354 658 b 703 340 560 658 703 568 b 375 -10 703 118 560 -10 b 233 38 326 -10 276 6 l 233 -18 b 294 -221 233 -185 235 -206 l 294 -231 l 21 -231 m 233 515 l 233 53 b 372 3 278 19 324 3 b 538 317 467 3 538 94 b 399 631 538 561 478 631 b 249 533 344 631 293 585 "},"q":{"ha":731,"x_min":0,"x_max":0,"o":"m 440 -221 b 501 -18 500 -206 501 -185 l 501 107 l 492 96 b 296 -10 438 36 383 -10 b 33 296 167 -10 33 85 b 369 657 33 524 188 657 b 603 592 507 657 558 592 b 649 639 626 592 642 607 l 660 639 l 660 -18 b 715 -221 660 -185 661 -207 l 715 -231 l 440 -231 m 197 314 b 336 17 197 76 265 17 b 492 113 393 17 438 53 l 501 124 l 501 508 b 471 617 501 575 494 599 b 371 644 453 632 428 644 b 197 314 271 644 197 557 "},"r":{"ha":511,"x_min":0,"x_max":0,"o":"m 21 10 b 76 213 75 24 76 46 l 76 365 b 19 538 76 528 76 531 l 19 549 l 233 667 l 233 515 l 260 544 b 431 658 346 638 378 658 b 501 597 474 658 501 636 b 438 529 501 549 471 529 b 331 581 381 529 364 581 b 260 529 310 581 299 572 l 233 500 l 233 213 b 294 10 233 46 235 25 l 294 0 l 21 0 "},"s":{"ha":513,"x_min":0,"x_max":0,"o":"m 251 3 b 383 117 353 3 383 54 b 228 269 383 183 343 224 b 36 486 104 318 36 367 b 238 661 36 582 117 661 b 401 626 329 661 354 626 b 425 650 413 626 421 638 l 436 650 l 436 488 l 425 488 b 238 649 390 594 328 649 b 121 554 153 649 121 611 b 276 419 121 486 178 460 b 479 192 414 364 479 313 b 251 -10 479 72 381 -10 b 67 40 144 -10 106 40 b 42 17 56 40 46 32 l 29 17 l 29 211 l 42 211 b 251 3 76 71 140 3 "},"t":{"ha":400,"x_min":0,"x_max":0,"o":"m 250 -10 b 82 142 139 -10 82 51 l 82 633 l 25 633 l 25 646 b 226 876 108 657 196 733 l 239 876 l 239 647 l 376 647 l 376 633 l 239 633 l 239 168 b 307 15 239 58 246 15 b 381 49 339 15 365 32 l 388 43 b 250 -10 372 25 339 -10 "},"u":{"ha":700,"x_min":0,"x_max":0,"o":"m 235 -11 b 74 160 154 -11 74 28 l 74 365 b 17 538 74 528 74 531 l 17 549 l 232 667 l 232 119 b 299 26 232 49 264 26 b 451 126 336 26 385 61 l 469 143 l 469 365 b 413 538 469 528 469 531 l 413 549 l 626 667 l 626 213 b 685 10 626 46 629 25 l 685 0 l 469 0 l 469 126 l 451 110 b 235 -11 378 39 319 -11 "},"v":{"ha":618,"x_min":0,"x_max":0,"o":"m 92 493 b -4 639 43 613 29 628 l -4 647 l 258 647 l 258 639 b 249 497 214 632 204 613 l 376 163 l 497 464 b 474 639 557 614 528 628 l 474 647 l 624 647 l 624 639 b 513 464 585 628 572 615 l 324 -7 l 293 -7 "},"w":{"ha":915,"x_min":0,"x_max":0,"o":"m 89 493 b 3 639 44 615 32 628 l 3 647 l 253 647 l 253 639 b 247 497 211 631 207 613 l 365 169 l 456 385 l 417 493 b 331 639 372 615 360 628 l 331 647 l 576 647 l 576 639 b 567 497 536 632 526 613 l 683 179 l 789 467 b 760 639 844 614 814 632 l 760 647 l 913 647 l 913 639 b 804 467 871 628 860 617 l 629 -7 l 597 -7 l 464 364 l 306 -7 l 274 -7 "},"x":{"ha":632,"x_min":0,"x_max":0,"o":"m 10 8 b 156 151 69 31 86 53 l 251 290 l 133 496 b 14 639 63 618 47 628 l 14 647 l 283 647 l 283 639 b 293 511 239 632 233 615 l 365 386 l 444 500 b 457 639 522 611 496 631 l 457 647 l 601 647 l 601 639 b 458 494 540 617 542 613 l 372 374 l 499 154 b 621 8 569 31 589 19 l 621 0 l 351 0 l 351 8 b 340 138 394 15 400 33 l 260 278 l 168 147 b 156 8 101 51 114 15 l 156 0 l 10 0 "},"y":{"ha":629,"x_min":0,"x_max":0,"o":"m 143 -237 b 68 -179 93 -237 68 -212 b 118 -128 68 -142 92 -128 b 215 -164 167 -128 174 -164 b 301 -44 239 -164 261 -144 l 313 -17 l 90 497 b -4 639 38 617 29 628 l -4 647 l 258 647 l 258 639 b 250 500 218 632 203 614 l 388 171 l 507 467 b 482 639 567 614 536 632 l 482 647 l 633 647 l 633 639 b 522 467 594 628 582 615 l 315 -49 b 143 -237 260 -187 215 -237 "},"z":{"ha":574,"x_min":0,"x_max":0,"o":"m 526 -14 b 346 0 501 -3 469 0 l 15 0 l 376 636 l 253 636 b 46 492 107 636 79 579 l 35 492 l 64 661 b 244 647 93 649 140 647 l 550 647 l 185 11 l 325 11 b 542 178 475 11 501 71 l 553 178 "},"A":{"ha":951,"x_min":0,"x_max":0,"o":"m 11 8 b 126 194 53 24 72 44 l 378 893 l 358 944 b 281 1033 332 1011 315 1025 l 281 1042 l 496 1042 b 518 1022 511 1042 513 1039 l 838 176 b 940 10 872 83 892 26 l 940 0 l 660 0 l 660 10 b 676 124 703 19 704 51 l 600 322 l 188 322 l 142 194 b 185 8 104 94 101 36 l 185 0 l 11 0 m 594 333 l 386 872 l 192 333 "}}}
